<mxfile host="app.diagrams.net" modified="2024-03-18T10:23:19.882Z" agent="Mozilla/5.0 (Windows NT 10.0; Win64; x64; rv:123.0) Gecko/20100101 Firefox/123.0" etag="WJnmcsc8a5XQABt7sKRB" version="24.0.7" type="device">
  <diagram id="iJW8FD_IC8tG_3s7V3ZE" name="Page-1">
    <mxGraphModel dx="677" dy="1559" grid="1" gridSize="10" guides="1" tooltips="1" connect="1" arrows="1" fold="1" page="1" pageScale="1" pageWidth="827" pageHeight="1169" math="0" shadow="0">
      <root>
        <mxCell id="0" />
        <mxCell id="1" parent="0" />
        <mxCell id="znWlgwHZ79DL5Ow_YZp7-131" value="" style="rounded=0;whiteSpace=wrap;html=1;" parent="1" vertex="1">
          <mxGeometry x="60" y="-260" width="500" height="110" as="geometry" />
        </mxCell>
        <mxCell id="znWlgwHZ79DL5Ow_YZp7-61" value="" style="rounded=0;whiteSpace=wrap;html=1;" parent="1" vertex="1">
          <mxGeometry x="60" y="-490" width="500" height="170" as="geometry" />
        </mxCell>
        <mxCell id="kjtUhcTxmiHCBkJJOneF-20" value="" style="rounded=0;whiteSpace=wrap;html=1;" parent="1" vertex="1">
          <mxGeometry x="422.5" y="280" width="320" height="230" as="geometry" />
        </mxCell>
        <mxCell id="kjtUhcTxmiHCBkJJOneF-6" value="" style="rounded=0;whiteSpace=wrap;html=1;" parent="1" vertex="1">
          <mxGeometry x="52.5" y="290" width="320" height="180" as="geometry" />
        </mxCell>
        <mxCell id="kjtUhcTxmiHCBkJJOneF-4" value="&lt;div&gt;Discharge Cycle&lt;/div&gt;" style="rounded=1;whiteSpace=wrap;html=1;" parent="1" vertex="1">
          <mxGeometry x="62.5" y="300" width="100" height="40" as="geometry" />
        </mxCell>
        <mxCell id="kjtUhcTxmiHCBkJJOneF-7" value="&lt;font style=&quot;font-size: 18px;&quot;&gt;Initial Setup&lt;/font&gt;" style="text;html=1;strokeColor=none;fillColor=none;align=center;verticalAlign=middle;whiteSpace=wrap;rounded=0;" parent="1" vertex="1">
          <mxGeometry x="52.5" y="260" width="320" height="30" as="geometry" />
        </mxCell>
        <mxCell id="kjtUhcTxmiHCBkJJOneF-9" value="BMS with Data Gathering Firmware" style="rounded=1;whiteSpace=wrap;html=1;" parent="1" vertex="1">
          <mxGeometry x="62.5" y="360" width="107.5" height="40" as="geometry" />
        </mxCell>
        <mxCell id="kjtUhcTxmiHCBkJJOneF-16" style="edgeStyle=orthogonalEdgeStyle;rounded=0;orthogonalLoop=1;jettySize=auto;html=1;entryX=0;entryY=0.5;entryDx=0;entryDy=0;fontSize=18;" parent="1" source="kjtUhcTxmiHCBkJJOneF-13" target="kjtUhcTxmiHCBkJJOneF-15" edge="1">
          <mxGeometry relative="1" as="geometry" />
        </mxCell>
        <mxCell id="kjtUhcTxmiHCBkJJOneF-18" style="edgeStyle=orthogonalEdgeStyle;rounded=0;orthogonalLoop=1;jettySize=auto;html=1;entryX=0;entryY=0.5;entryDx=0;entryDy=0;fontSize=18;" parent="1" source="kjtUhcTxmiHCBkJJOneF-13" target="kjtUhcTxmiHCBkJJOneF-17" edge="1">
          <mxGeometry relative="1" as="geometry" />
        </mxCell>
        <mxCell id="kjtUhcTxmiHCBkJJOneF-13" value="Data processing program" style="rounded=1;whiteSpace=wrap;html=1;" parent="1" vertex="1">
          <mxGeometry x="62.5" y="420" width="100" height="40" as="geometry" />
        </mxCell>
        <mxCell id="kjtUhcTxmiHCBkJJOneF-34" style="edgeStyle=orthogonalEdgeStyle;rounded=0;orthogonalLoop=1;jettySize=auto;html=1;fontSize=18;" parent="1" source="kjtUhcTxmiHCBkJJOneF-15" target="kjtUhcTxmiHCBkJJOneF-32" edge="1">
          <mxGeometry relative="1" as="geometry" />
        </mxCell>
        <mxCell id="kjtUhcTxmiHCBkJJOneF-15" value="Visual Discharge Voltage Curve" style="rounded=1;whiteSpace=wrap;html=1;" parent="1" vertex="1">
          <mxGeometry x="202.5" y="300" width="100" height="40" as="geometry" />
        </mxCell>
        <mxCell id="kjtUhcTxmiHCBkJJOneF-35" style="edgeStyle=orthogonalEdgeStyle;rounded=0;orthogonalLoop=1;jettySize=auto;html=1;entryX=0;entryY=0.5;entryDx=0;entryDy=0;fontSize=18;" parent="1" source="kjtUhcTxmiHCBkJJOneF-17" target="kjtUhcTxmiHCBkJJOneF-32" edge="1">
          <mxGeometry relative="1" as="geometry">
            <Array as="points">
              <mxPoint x="342.5" y="440" />
              <mxPoint x="342.5" y="320" />
            </Array>
          </mxGeometry>
        </mxCell>
        <mxCell id="kjtUhcTxmiHCBkJJOneF-17" value="OCV lookup for Capacity and Energy" style="rounded=1;whiteSpace=wrap;html=1;" parent="1" vertex="1">
          <mxGeometry x="202.5" y="420" width="120" height="40" as="geometry" />
        </mxCell>
        <mxCell id="kjtUhcTxmiHCBkJJOneF-31" value="&lt;font style=&quot;font-size: 18px;&quot;&gt;Online Battery Monitoring&lt;/font&gt;" style="text;html=1;strokeColor=none;fillColor=none;align=center;verticalAlign=middle;whiteSpace=wrap;rounded=0;" parent="1" vertex="1">
          <mxGeometry x="422.5" y="250" width="320" height="30" as="geometry" />
        </mxCell>
        <mxCell id="kjtUhcTxmiHCBkJJOneF-37" value="" style="edgeStyle=orthogonalEdgeStyle;rounded=0;orthogonalLoop=1;jettySize=auto;html=1;fontSize=18;" parent="1" source="kjtUhcTxmiHCBkJJOneF-32" target="kjtUhcTxmiHCBkJJOneF-36" edge="1">
          <mxGeometry relative="1" as="geometry" />
        </mxCell>
        <mxCell id="kjtUhcTxmiHCBkJJOneF-54" style="edgeStyle=elbowEdgeStyle;rounded=0;jumpStyle=sharp;orthogonalLoop=1;jettySize=auto;html=1;entryX=0;entryY=0.25;entryDx=0;entryDy=0;fontSize=18;jumpSize=8;" parent="1" source="kjtUhcTxmiHCBkJJOneF-32" target="kjtUhcTxmiHCBkJJOneF-47" edge="1">
          <mxGeometry relative="1" as="geometry">
            <Array as="points">
              <mxPoint x="572.5" y="310" />
              <mxPoint x="572.5" y="330" />
              <mxPoint x="552.5" y="310" />
            </Array>
          </mxGeometry>
        </mxCell>
        <mxCell id="kjtUhcTxmiHCBkJJOneF-32" value="Simulation Parameters" style="rounded=1;whiteSpace=wrap;html=1;" parent="1" vertex="1">
          <mxGeometry x="442.5" y="300" width="100" height="40" as="geometry" />
        </mxCell>
        <mxCell id="kjtUhcTxmiHCBkJJOneF-71" style="edgeStyle=elbowEdgeStyle;rounded=0;jumpStyle=sharp;jumpSize=8;orthogonalLoop=1;jettySize=auto;html=1;fontSize=18;startArrow=classic;startFill=1;" parent="1" source="kjtUhcTxmiHCBkJJOneF-36" target="kjtUhcTxmiHCBkJJOneF-47" edge="1">
          <mxGeometry relative="1" as="geometry" />
        </mxCell>
        <mxCell id="kjtUhcTxmiHCBkJJOneF-36" value="Initial SoC Estimation" style="rounded=1;whiteSpace=wrap;html=1;" parent="1" vertex="1">
          <mxGeometry x="612.5" y="300" width="100" height="40" as="geometry" />
        </mxCell>
        <mxCell id="kjtUhcTxmiHCBkJJOneF-46" style="edgeStyle=orthogonalEdgeStyle;rounded=0;orthogonalLoop=1;jettySize=auto;html=1;entryX=0;entryY=0.5;entryDx=0;entryDy=0;fontSize=18;" parent="1" source="kjtUhcTxmiHCBkJJOneF-38" target="kjtUhcTxmiHCBkJJOneF-36" edge="1">
          <mxGeometry relative="1" as="geometry">
            <Array as="points">
              <mxPoint x="562.5" y="370" />
              <mxPoint x="562.5" y="320" />
            </Array>
          </mxGeometry>
        </mxCell>
        <mxCell id="kjtUhcTxmiHCBkJJOneF-55" style="edgeStyle=elbowEdgeStyle;rounded=0;jumpStyle=sharp;jumpSize=8;orthogonalLoop=1;jettySize=auto;html=1;entryX=0;entryY=0.5;entryDx=0;entryDy=0;fontSize=18;" parent="1" source="kjtUhcTxmiHCBkJJOneF-38" target="kjtUhcTxmiHCBkJJOneF-47" edge="1">
          <mxGeometry relative="1" as="geometry" />
        </mxCell>
        <mxCell id="kjtUhcTxmiHCBkJJOneF-61" style="edgeStyle=elbowEdgeStyle;rounded=0;jumpStyle=sharp;jumpSize=8;orthogonalLoop=1;jettySize=auto;html=1;entryX=0.5;entryY=0;entryDx=0;entryDy=0;fontSize=18;" parent="1" source="kjtUhcTxmiHCBkJJOneF-38" target="kjtUhcTxmiHCBkJJOneF-39" edge="1">
          <mxGeometry relative="1" as="geometry" />
        </mxCell>
        <mxCell id="kjtUhcTxmiHCBkJJOneF-72" style="edgeStyle=elbowEdgeStyle;rounded=0;jumpStyle=sharp;jumpSize=8;orthogonalLoop=1;jettySize=auto;html=1;exitX=0.75;exitY=1;exitDx=0;exitDy=0;entryX=0.25;entryY=0;entryDx=0;entryDy=0;fontSize=18;elbow=vertical;" parent="1" source="kjtUhcTxmiHCBkJJOneF-38" target="kjtUhcTxmiHCBkJJOneF-40" edge="1">
          <mxGeometry relative="1" as="geometry">
            <Array as="points">
              <mxPoint x="602.5" y="410" />
              <mxPoint x="592.5" y="410" />
              <mxPoint x="542.5" y="410" />
              <mxPoint x="602.5" y="420" />
            </Array>
          </mxGeometry>
        </mxCell>
        <mxCell id="kjtUhcTxmiHCBkJJOneF-38" value="Voltage and Current Input" style="rounded=1;whiteSpace=wrap;html=1;" parent="1" vertex="1">
          <mxGeometry x="442.5" y="360" width="100" height="40" as="geometry" />
        </mxCell>
        <mxCell id="kjtUhcTxmiHCBkJJOneF-62" style="edgeStyle=elbowEdgeStyle;rounded=0;jumpStyle=sharp;jumpSize=8;orthogonalLoop=1;jettySize=auto;html=1;entryX=0;entryY=0.75;entryDx=0;entryDy=0;fontSize=18;" parent="1" source="kjtUhcTxmiHCBkJJOneF-39" target="kjtUhcTxmiHCBkJJOneF-47" edge="1">
          <mxGeometry relative="1" as="geometry">
            <Array as="points">
              <mxPoint x="562.5" y="410" />
            </Array>
          </mxGeometry>
        </mxCell>
        <mxCell id="kjtUhcTxmiHCBkJJOneF-39" value="Resistance Estimation" style="rounded=1;whiteSpace=wrap;html=1;" parent="1" vertex="1">
          <mxGeometry x="442.5" y="420" width="100" height="40" as="geometry" />
        </mxCell>
        <mxCell id="kjtUhcTxmiHCBkJJOneF-68" style="edgeStyle=elbowEdgeStyle;rounded=0;jumpStyle=sharp;jumpSize=8;orthogonalLoop=1;jettySize=auto;html=1;exitX=0.25;exitY=1;exitDx=0;exitDy=0;entryX=0;entryY=0.5;entryDx=0;entryDy=0;fontSize=18;" parent="1" source="kjtUhcTxmiHCBkJJOneF-40" target="kjtUhcTxmiHCBkJJOneF-56" edge="1">
          <mxGeometry relative="1" as="geometry">
            <Array as="points">
              <mxPoint x="622.5" y="470" />
            </Array>
          </mxGeometry>
        </mxCell>
        <mxCell id="kjtUhcTxmiHCBkJJOneF-40" value="Comparison Processing" style="rounded=1;whiteSpace=wrap;html=1;" parent="1" vertex="1">
          <mxGeometry x="602.5" y="420" width="100" height="40" as="geometry" />
        </mxCell>
        <mxCell id="kjtUhcTxmiHCBkJJOneF-42" value="" style="endArrow=none;html=1;rounded=0;fontSize=18;entryX=1;entryY=0.288;entryDx=0;entryDy=0;entryPerimeter=0;" parent="1" target="kjtUhcTxmiHCBkJJOneF-20" edge="1">
          <mxGeometry width="50" height="50" relative="1" as="geometry">
            <mxPoint x="422.5" y="347" as="sourcePoint" />
            <mxPoint x="532.5" y="420" as="targetPoint" />
          </mxGeometry>
        </mxCell>
        <mxCell id="kjtUhcTxmiHCBkJJOneF-43" value="Startup" style="text;html=1;strokeColor=none;fillColor=none;align=center;verticalAlign=middle;whiteSpace=wrap;rounded=0;" parent="1" vertex="1">
          <mxGeometry x="422.5" y="280" width="320" height="20" as="geometry" />
        </mxCell>
        <mxCell id="kjtUhcTxmiHCBkJJOneF-44" value="Live Loop" style="text;html=1;strokeColor=none;fillColor=none;align=center;verticalAlign=middle;whiteSpace=wrap;rounded=0;" parent="1" vertex="1">
          <mxGeometry x="422.5" y="490" width="320" height="20" as="geometry" />
        </mxCell>
        <mxCell id="kjtUhcTxmiHCBkJJOneF-65" style="edgeStyle=elbowEdgeStyle;rounded=0;jumpStyle=sharp;jumpSize=8;orthogonalLoop=1;jettySize=auto;html=1;fontSize=18;" parent="1" source="kjtUhcTxmiHCBkJJOneF-47" target="kjtUhcTxmiHCBkJJOneF-40" edge="1">
          <mxGeometry relative="1" as="geometry" />
        </mxCell>
        <mxCell id="kjtUhcTxmiHCBkJJOneF-47" value="Battery Simulation" style="rounded=1;whiteSpace=wrap;html=1;" parent="1" vertex="1">
          <mxGeometry x="602.5" y="361" width="100" height="40" as="geometry" />
        </mxCell>
        <mxCell id="kjtUhcTxmiHCBkJJOneF-69" style="edgeStyle=elbowEdgeStyle;rounded=0;jumpStyle=sharp;jumpSize=8;orthogonalLoop=1;jettySize=auto;html=1;exitX=0.75;exitY=0;exitDx=0;exitDy=0;entryX=1;entryY=0.5;entryDx=0;entryDy=0;fontSize=18;" parent="1" source="kjtUhcTxmiHCBkJJOneF-56" target="kjtUhcTxmiHCBkJJOneF-47" edge="1">
          <mxGeometry relative="1" as="geometry">
            <Array as="points">
              <mxPoint x="722.5" y="400" />
              <mxPoint x="712.5" y="410" />
              <mxPoint x="722.5" y="410" />
            </Array>
          </mxGeometry>
        </mxCell>
        <mxCell id="kjtUhcTxmiHCBkJJOneF-56" value="Estimated Performance" style="rounded=1;whiteSpace=wrap;html=1;" parent="1" vertex="1">
          <mxGeometry x="652.5" y="470" width="80" height="30" as="geometry" />
        </mxCell>
        <mxCell id="znWlgwHZ79DL5Ow_YZp7-15" value="&lt;font style=&quot;font-size: 18px;&quot;&gt;Online Battery Monitoring&lt;/font&gt;" style="text;html=1;strokeColor=none;fillColor=none;align=center;verticalAlign=middle;whiteSpace=wrap;rounded=0;" parent="1" vertex="1">
          <mxGeometry x="60" y="-290" width="500" height="30" as="geometry" />
        </mxCell>
        <mxCell id="znWlgwHZ79DL5Ow_YZp7-97" value="Power" style="edgeStyle=orthogonalEdgeStyle;rounded=0;orthogonalLoop=1;jettySize=auto;html=1;entryX=0;entryY=0.5;entryDx=0;entryDy=0;" parent="1" source="znWlgwHZ79DL5Ow_YZp7-41" target="znWlgwHZ79DL5Ow_YZp7-42" edge="1">
          <mxGeometry relative="1" as="geometry" />
        </mxCell>
        <mxCell id="znWlgwHZ79DL5Ow_YZp7-41" value="Battery" style="rounded=1;whiteSpace=wrap;html=1;" parent="1" vertex="1">
          <mxGeometry x="70" y="-435" width="50" height="30" as="geometry" />
        </mxCell>
        <mxCell id="znWlgwHZ79DL5Ow_YZp7-100" value="Power" style="edgeStyle=orthogonalEdgeStyle;rounded=0;orthogonalLoop=1;jettySize=auto;html=1;exitX=1;exitY=0.5;exitDx=0;exitDy=0;entryX=0.5;entryY=1;entryDx=0;entryDy=0;" parent="1" source="znWlgwHZ79DL5Ow_YZp7-42" target="znWlgwHZ79DL5Ow_YZp7-43" edge="1">
          <mxGeometry relative="1" as="geometry" />
        </mxCell>
        <mxCell id="znWlgwHZ79DL5Ow_YZp7-42" value="&lt;div&gt;Monitor&lt;/div&gt;" style="rounded=0;whiteSpace=wrap;html=1;" parent="1" vertex="1">
          <mxGeometry x="120" y="-370" width="50" height="30" as="geometry" />
        </mxCell>
        <mxCell id="znWlgwHZ79DL5Ow_YZp7-43" value="Battery Discharger" style="rounded=0;whiteSpace=wrap;html=1;" parent="1" vertex="1">
          <mxGeometry x="170" y="-430" width="80" height="50" as="geometry" />
        </mxCell>
        <mxCell id="znWlgwHZ79DL5Ow_YZp7-44" value="" style="group;rounded=1;" parent="1" vertex="1" connectable="0">
          <mxGeometry x="270" y="-470" width="80" height="100" as="geometry" />
        </mxCell>
        <mxCell id="znWlgwHZ79DL5Ow_YZp7-37" value="Computer" style="rounded=0;whiteSpace=wrap;html=1;" parent="znWlgwHZ79DL5Ow_YZp7-44" vertex="1">
          <mxGeometry width="80" height="50" as="geometry" />
        </mxCell>
        <mxCell id="znWlgwHZ79DL5Ow_YZp7-39" value="" style="verticalLabelPosition=bottom;verticalAlign=top;html=1;shape=mxgraph.basic.patternFillRect;fillStyle=grid;step=10;fillStrokeWidth=0.8;fillStrokeColor=#000000;" parent="znWlgwHZ79DL5Ow_YZp7-44" vertex="1">
          <mxGeometry y="50" width="80" height="50" as="geometry" />
        </mxCell>
        <mxCell id="znWlgwHZ79DL5Ow_YZp7-48" value="Discharge Data" style="edgeStyle=orthogonalEdgeStyle;rounded=0;orthogonalLoop=1;jettySize=auto;html=1;entryX=0;entryY=0.5;entryDx=0;entryDy=0;exitX=0.5;exitY=0;exitDx=0;exitDy=0;" parent="1" source="znWlgwHZ79DL5Ow_YZp7-42" target="znWlgwHZ79DL5Ow_YZp7-37" edge="1">
          <mxGeometry relative="1" as="geometry" />
        </mxCell>
        <mxCell id="znWlgwHZ79DL5Ow_YZp7-49" value="&lt;div&gt;Monitor&lt;/div&gt;" style="rounded=0;whiteSpace=wrap;html=1;" parent="1" vertex="1">
          <mxGeometry x="490" y="-460" width="50" height="30" as="geometry" />
        </mxCell>
        <mxCell id="znWlgwHZ79DL5Ow_YZp7-52" value="&lt;div&gt;Calculated&lt;/div&gt;&lt;div&gt;Parameters&lt;br&gt; &lt;/div&gt;" style="edgeStyle=orthogonalEdgeStyle;rounded=0;orthogonalLoop=1;jettySize=auto;html=1;" parent="1" source="znWlgwHZ79DL5Ow_YZp7-37" target="znWlgwHZ79DL5Ow_YZp7-49" edge="1">
          <mxGeometry relative="1" as="geometry" />
        </mxCell>
        <mxCell id="znWlgwHZ79DL5Ow_YZp7-60" value="Parameters" style="edgeStyle=orthogonalEdgeStyle;rounded=0;orthogonalLoop=1;jettySize=auto;html=1;entryX=0.5;entryY=1;entryDx=0;entryDy=0;" parent="1" source="znWlgwHZ79DL5Ow_YZp7-53" target="znWlgwHZ79DL5Ow_YZp7-49" edge="1">
          <mxGeometry relative="1" as="geometry" />
        </mxCell>
        <mxCell id="znWlgwHZ79DL5Ow_YZp7-53" value="User" style="rounded=0;whiteSpace=wrap;html=1;glass=0;shadow=0;textShadow=0;" parent="1" vertex="1">
          <mxGeometry x="425" y="-410" width="50" height="30" as="geometry" />
        </mxCell>
        <mxCell id="znWlgwHZ79DL5Ow_YZp7-56" value="&lt;div&gt;Discharge&lt;/div&gt;&lt;div&gt;Graph&lt;br&gt;&lt;/div&gt;" style="edgeStyle=orthogonalEdgeStyle;rounded=0;orthogonalLoop=1;jettySize=auto;html=1;" parent="1" source="znWlgwHZ79DL5Ow_YZp7-39" target="znWlgwHZ79DL5Ow_YZp7-53" edge="1">
          <mxGeometry relative="1" as="geometry" />
        </mxCell>
        <mxCell id="znWlgwHZ79DL5Ow_YZp7-62" value="&lt;font style=&quot;font-size: 18px;&quot;&gt;Initial Setup&lt;/font&gt;" style="text;html=1;strokeColor=none;fillColor=none;align=center;verticalAlign=middle;whiteSpace=wrap;rounded=0;" parent="1" vertex="1">
          <mxGeometry x="60" y="-520" width="500" height="30" as="geometry" />
        </mxCell>
        <mxCell id="znWlgwHZ79DL5Ow_YZp7-124" value="Power" style="edgeStyle=orthogonalEdgeStyle;rounded=0;orthogonalLoop=1;jettySize=auto;html=1;entryX=0;entryY=0.5;entryDx=0;entryDy=0;" parent="1" source="znWlgwHZ79DL5Ow_YZp7-82" target="znWlgwHZ79DL5Ow_YZp7-89" edge="1">
          <mxGeometry relative="1" as="geometry" />
        </mxCell>
        <mxCell id="znWlgwHZ79DL5Ow_YZp7-82" value="Battery" style="rounded=1;whiteSpace=wrap;html=1;" parent="1" vertex="1">
          <mxGeometry x="77.5" y="-225" width="50" height="30" as="geometry" />
        </mxCell>
        <mxCell id="znWlgwHZ79DL5Ow_YZp7-129" value="Data" style="edgeStyle=orthogonalEdgeStyle;rounded=0;orthogonalLoop=1;jettySize=auto;html=1;exitX=1;exitY=0.25;exitDx=0;exitDy=0;entryX=0;entryY=0.25;entryDx=0;entryDy=0;" parent="1" source="znWlgwHZ79DL5Ow_YZp7-89" target="znWlgwHZ79DL5Ow_YZp7-102" edge="1">
          <mxGeometry relative="1" as="geometry" />
        </mxCell>
        <mxCell id="znWlgwHZ79DL5Ow_YZp7-89" value="&lt;div&gt;Monitor&lt;/div&gt;" style="rounded=0;whiteSpace=wrap;html=1;" parent="1" vertex="1">
          <mxGeometry x="182.5" y="-225" width="50" height="30" as="geometry" />
        </mxCell>
        <mxCell id="znWlgwHZ79DL5Ow_YZp7-130" value="Performance Data" style="edgeStyle=orthogonalEdgeStyle;rounded=0;orthogonalLoop=1;jettySize=auto;html=1;dashed=1;" parent="1" source="znWlgwHZ79DL5Ow_YZp7-102" target="znWlgwHZ79DL5Ow_YZp7-126" edge="1">
          <mxGeometry relative="1" as="geometry" />
        </mxCell>
        <mxCell id="znWlgwHZ79DL5Ow_YZp7-102" value="Drone" style="rounded=0;whiteSpace=wrap;html=1;" parent="1" vertex="1">
          <mxGeometry x="292.5" y="-227.5" width="40" height="35" as="geometry" />
        </mxCell>
        <mxCell id="znWlgwHZ79DL5Ow_YZp7-107" value="" style="group" parent="1" vertex="1" connectable="0">
          <mxGeometry x="332.5" y="-250" width="50" height="22.5" as="geometry" />
        </mxCell>
        <mxCell id="znWlgwHZ79DL5Ow_YZp7-103" value="" style="endArrow=none;html=1;rounded=0;" parent="znWlgwHZ79DL5Ow_YZp7-107" source="znWlgwHZ79DL5Ow_YZp7-104" edge="1">
          <mxGeometry width="50" height="50" relative="1" as="geometry">
            <mxPoint x="10" y="17.5" as="sourcePoint" />
            <mxPoint x="30" y="2.5" as="targetPoint" />
          </mxGeometry>
        </mxCell>
        <mxCell id="znWlgwHZ79DL5Ow_YZp7-105" value="" style="endArrow=none;html=1;rounded=0;" parent="znWlgwHZ79DL5Ow_YZp7-107" target="znWlgwHZ79DL5Ow_YZp7-104" edge="1">
          <mxGeometry width="50" height="50" relative="1" as="geometry">
            <mxPoint y="22.5" as="sourcePoint" />
            <mxPoint x="30" y="2.5" as="targetPoint" />
          </mxGeometry>
        </mxCell>
        <mxCell id="znWlgwHZ79DL5Ow_YZp7-104" value="" style="ellipse;whiteSpace=wrap;html=1;aspect=fixed;fillColor=#000000;" parent="znWlgwHZ79DL5Ow_YZp7-107" vertex="1">
          <mxGeometry x="27.5" y="2.5" width="5" height="5" as="geometry" />
        </mxCell>
        <mxCell id="znWlgwHZ79DL5Ow_YZp7-106" value="" style="endArrow=none;html=1;rounded=0;" parent="znWlgwHZ79DL5Ow_YZp7-107" edge="1">
          <mxGeometry width="50" height="50" relative="1" as="geometry">
            <mxPoint x="50" y="10" as="sourcePoint" />
            <mxPoint x="10" as="targetPoint" />
          </mxGeometry>
        </mxCell>
        <mxCell id="znWlgwHZ79DL5Ow_YZp7-108" value="" style="group;rotation=-180;" parent="1" vertex="1" connectable="0">
          <mxGeometry x="242.5" y="-192.5" width="50" height="22.5" as="geometry" />
        </mxCell>
        <mxCell id="znWlgwHZ79DL5Ow_YZp7-109" value="" style="endArrow=none;html=1;rounded=0;" parent="znWlgwHZ79DL5Ow_YZp7-108" source="znWlgwHZ79DL5Ow_YZp7-111" edge="1">
          <mxGeometry width="50" height="50" relative="1" as="geometry">
            <mxPoint x="40" y="5" as="sourcePoint" />
            <mxPoint x="20" y="20" as="targetPoint" />
          </mxGeometry>
        </mxCell>
        <mxCell id="znWlgwHZ79DL5Ow_YZp7-110" value="" style="endArrow=none;html=1;rounded=0;" parent="znWlgwHZ79DL5Ow_YZp7-108" target="znWlgwHZ79DL5Ow_YZp7-111" edge="1">
          <mxGeometry width="50" height="50" relative="1" as="geometry">
            <mxPoint x="50" as="sourcePoint" />
            <mxPoint x="20" y="20" as="targetPoint" />
          </mxGeometry>
        </mxCell>
        <mxCell id="znWlgwHZ79DL5Ow_YZp7-111" value="" style="ellipse;whiteSpace=wrap;html=1;aspect=fixed;fillColor=#000000;rotation=-180;" parent="znWlgwHZ79DL5Ow_YZp7-108" vertex="1">
          <mxGeometry x="18" y="15" width="5" height="5" as="geometry" />
        </mxCell>
        <mxCell id="znWlgwHZ79DL5Ow_YZp7-112" value="" style="endArrow=none;html=1;rounded=0;" parent="znWlgwHZ79DL5Ow_YZp7-108" edge="1">
          <mxGeometry width="50" height="50" relative="1" as="geometry">
            <mxPoint y="12" as="sourcePoint" />
            <mxPoint x="40" y="23" as="targetPoint" />
          </mxGeometry>
        </mxCell>
        <mxCell id="znWlgwHZ79DL5Ow_YZp7-113" value="" style="group;rotation=-180;flipH=1;" parent="1" vertex="1" connectable="0">
          <mxGeometry x="332.5" y="-192.5" width="50" height="22.5" as="geometry" />
        </mxCell>
        <mxCell id="znWlgwHZ79DL5Ow_YZp7-114" value="" style="endArrow=none;html=1;rounded=0;" parent="znWlgwHZ79DL5Ow_YZp7-113" source="znWlgwHZ79DL5Ow_YZp7-116" edge="1">
          <mxGeometry width="50" height="50" relative="1" as="geometry">
            <mxPoint x="10" y="5" as="sourcePoint" />
            <mxPoint x="30" y="20" as="targetPoint" />
          </mxGeometry>
        </mxCell>
        <mxCell id="znWlgwHZ79DL5Ow_YZp7-115" value="" style="endArrow=none;html=1;rounded=0;" parent="znWlgwHZ79DL5Ow_YZp7-113" target="znWlgwHZ79DL5Ow_YZp7-116" edge="1">
          <mxGeometry width="50" height="50" relative="1" as="geometry">
            <mxPoint as="sourcePoint" />
            <mxPoint x="30" y="20" as="targetPoint" />
          </mxGeometry>
        </mxCell>
        <mxCell id="znWlgwHZ79DL5Ow_YZp7-116" value="" style="ellipse;whiteSpace=wrap;html=1;aspect=fixed;fillColor=#000000;rotation=-180;" parent="znWlgwHZ79DL5Ow_YZp7-113" vertex="1">
          <mxGeometry x="27" y="15" width="5" height="5" as="geometry" />
        </mxCell>
        <mxCell id="znWlgwHZ79DL5Ow_YZp7-117" value="" style="endArrow=none;html=1;rounded=0;" parent="znWlgwHZ79DL5Ow_YZp7-113" edge="1">
          <mxGeometry width="50" height="50" relative="1" as="geometry">
            <mxPoint x="50" y="12" as="sourcePoint" />
            <mxPoint x="10" y="23" as="targetPoint" />
          </mxGeometry>
        </mxCell>
        <mxCell id="znWlgwHZ79DL5Ow_YZp7-118" value="" style="group;rotation=-180;flipH=0;flipV=1;" parent="1" vertex="1" connectable="0">
          <mxGeometry x="242.5" y="-250" width="50" height="22.5" as="geometry" />
        </mxCell>
        <mxCell id="znWlgwHZ79DL5Ow_YZp7-119" value="" style="endArrow=none;html=1;rounded=0;" parent="znWlgwHZ79DL5Ow_YZp7-118" source="znWlgwHZ79DL5Ow_YZp7-121" edge="1">
          <mxGeometry width="50" height="50" relative="1" as="geometry">
            <mxPoint x="40" y="17.5" as="sourcePoint" />
            <mxPoint x="20" y="2.5" as="targetPoint" />
          </mxGeometry>
        </mxCell>
        <mxCell id="znWlgwHZ79DL5Ow_YZp7-120" value="" style="endArrow=none;html=1;rounded=0;" parent="znWlgwHZ79DL5Ow_YZp7-118" target="znWlgwHZ79DL5Ow_YZp7-121" edge="1">
          <mxGeometry width="50" height="50" relative="1" as="geometry">
            <mxPoint x="50" y="22.5" as="sourcePoint" />
            <mxPoint x="20" y="2.5" as="targetPoint" />
          </mxGeometry>
        </mxCell>
        <mxCell id="znWlgwHZ79DL5Ow_YZp7-121" value="" style="ellipse;whiteSpace=wrap;html=1;aspect=fixed;fillColor=#000000;rotation=-180;" parent="znWlgwHZ79DL5Ow_YZp7-118" vertex="1">
          <mxGeometry x="18" y="2.5" width="5" height="5" as="geometry" />
        </mxCell>
        <mxCell id="znWlgwHZ79DL5Ow_YZp7-122" value="" style="endArrow=none;html=1;rounded=0;" parent="znWlgwHZ79DL5Ow_YZp7-118" edge="1">
          <mxGeometry width="50" height="50" relative="1" as="geometry">
            <mxPoint y="10.5" as="sourcePoint" />
            <mxPoint x="40" y="-0.5" as="targetPoint" />
          </mxGeometry>
        </mxCell>
        <mxCell id="znWlgwHZ79DL5Ow_YZp7-125" value="Power" style="edgeStyle=orthogonalEdgeStyle;rounded=0;orthogonalLoop=1;jettySize=auto;html=1;entryX=0;entryY=0.75;entryDx=0;entryDy=0;exitX=1;exitY=0.75;exitDx=0;exitDy=0;" parent="1" source="znWlgwHZ79DL5Ow_YZp7-89" target="znWlgwHZ79DL5Ow_YZp7-102" edge="1">
          <mxGeometry relative="1" as="geometry" />
        </mxCell>
        <mxCell id="znWlgwHZ79DL5Ow_YZp7-126" value="User" style="rounded=0;whiteSpace=wrap;html=1;glass=0;shadow=0;textShadow=0;" parent="1" vertex="1">
          <mxGeometry x="492.5" y="-225" width="50" height="30" as="geometry" />
        </mxCell>
        <mxCell id="znWlgwHZ79DL5Ow_YZp7-134" value="Power" style="edgeStyle=orthogonalEdgeStyle;rounded=0;orthogonalLoop=1;jettySize=auto;html=1;entryX=0;entryY=0.5;entryDx=0;entryDy=0;" parent="1" source="znWlgwHZ79DL5Ow_YZp7-135" target="znWlgwHZ79DL5Ow_YZp7-137" edge="1">
          <mxGeometry relative="1" as="geometry" />
        </mxCell>
        <mxCell id="znWlgwHZ79DL5Ow_YZp7-135" value="Main&amp;nbsp; Power Connector" style="rounded=1;whiteSpace=wrap;html=1;" parent="1" vertex="1">
          <mxGeometry x="180" y="-760" width="70" height="30" as="geometry" />
        </mxCell>
        <mxCell id="znWlgwHZ79DL5Ow_YZp7-162" value="Power" style="edgeStyle=orthogonalEdgeStyle;rounded=0;orthogonalLoop=1;jettySize=auto;html=1;exitX=1;exitY=0.5;exitDx=0;exitDy=0;" parent="1" source="znWlgwHZ79DL5Ow_YZp7-137" edge="1">
          <mxGeometry relative="1" as="geometry">
            <mxPoint x="550" y="-745.090909090909" as="targetPoint" />
          </mxGeometry>
        </mxCell>
        <mxCell id="znWlgwHZ79DL5Ow_YZp7-169" value="Battery Voltage" style="edgeStyle=orthogonalEdgeStyle;rounded=0;orthogonalLoop=1;jettySize=auto;html=1;" parent="1" source="znWlgwHZ79DL5Ow_YZp7-137" target="znWlgwHZ79DL5Ow_YZp7-159" edge="1">
          <mxGeometry relative="1" as="geometry">
            <Array as="points">
              <mxPoint x="385" y="-710" />
              <mxPoint x="385" y="-710" />
            </Array>
          </mxGeometry>
        </mxCell>
        <mxCell id="znWlgwHZ79DL5Ow_YZp7-170" value="Voltage Across Shunt" style="edgeStyle=orthogonalEdgeStyle;rounded=0;orthogonalLoop=1;jettySize=auto;html=1;exitX=0.904;exitY=1.002;exitDx=0;exitDy=0;exitPerimeter=0;" parent="1" source="znWlgwHZ79DL5Ow_YZp7-137" target="znWlgwHZ79DL5Ow_YZp7-160" edge="1">
          <mxGeometry x="-0.2943" relative="1" as="geometry">
            <Array as="points">
              <mxPoint x="450" y="-710" />
              <mxPoint x="570" y="-710" />
              <mxPoint x="570" y="-665" />
            </Array>
            <mxPoint as="offset" />
          </mxGeometry>
        </mxCell>
        <mxCell id="znWlgwHZ79DL5Ow_YZp7-137" value="Current Shunt Resistor" style="rounded=0;whiteSpace=wrap;html=1;" parent="1" vertex="1">
          <mxGeometry x="332.5" y="-760" width="130" height="30" as="geometry" />
        </mxCell>
        <mxCell id="znWlgwHZ79DL5Ow_YZp7-155" value="" style="edgeStyle=orthogonalEdgeStyle;rounded=0;orthogonalLoop=1;jettySize=auto;html=1;" parent="1" source="znWlgwHZ79DL5Ow_YZp7-153" target="znWlgwHZ79DL5Ow_YZp7-135" edge="1">
          <mxGeometry relative="1" as="geometry" />
        </mxCell>
        <mxCell id="znWlgwHZ79DL5Ow_YZp7-157" style="edgeStyle=orthogonalEdgeStyle;rounded=0;orthogonalLoop=1;jettySize=auto;html=1;exitX=0.5;exitY=1;exitDx=0;exitDy=0;entryX=0;entryY=0.5;entryDx=0;entryDy=0;" parent="1" source="znWlgwHZ79DL5Ow_YZp7-153" target="znWlgwHZ79DL5Ow_YZp7-156" edge="1">
          <mxGeometry relative="1" as="geometry">
            <Array as="points">
              <mxPoint x="120" y="-730" />
              <mxPoint x="120" y="-705" />
            </Array>
          </mxGeometry>
        </mxCell>
        <mxCell id="znWlgwHZ79DL5Ow_YZp7-153" value="Battery" style="rounded=1;whiteSpace=wrap;html=1;" parent="1" vertex="1">
          <mxGeometry x="100" y="-760" width="50" height="30" as="geometry" />
        </mxCell>
        <mxCell id="znWlgwHZ79DL5Ow_YZp7-168" value="Cell Voltages" style="edgeStyle=orthogonalEdgeStyle;rounded=0;orthogonalLoop=1;jettySize=auto;html=1;exitX=1;exitY=0.5;exitDx=0;exitDy=0;entryX=0.5;entryY=0;entryDx=0;entryDy=0;" parent="1" source="znWlgwHZ79DL5Ow_YZp7-156" target="znWlgwHZ79DL5Ow_YZp7-158" edge="1">
          <mxGeometry relative="1" as="geometry" />
        </mxCell>
        <mxCell id="znWlgwHZ79DL5Ow_YZp7-156" value="Balance Connector" style="rounded=1;whiteSpace=wrap;html=1;" parent="1" vertex="1">
          <mxGeometry x="145" y="-720" width="70" height="30" as="geometry" />
        </mxCell>
        <mxCell id="znWlgwHZ79DL5Ow_YZp7-172" value="Cell Voltage Data" style="edgeStyle=orthogonalEdgeStyle;rounded=0;orthogonalLoop=1;jettySize=auto;html=1;entryX=0.25;entryY=0;entryDx=0;entryDy=0;" parent="1" source="znWlgwHZ79DL5Ow_YZp7-158" target="znWlgwHZ79DL5Ow_YZp7-164" edge="1">
          <mxGeometry relative="1" as="geometry">
            <Array as="points">
              <mxPoint x="230" y="-630" />
              <mxPoint x="332" y="-630" />
            </Array>
          </mxGeometry>
        </mxCell>
        <mxCell id="znWlgwHZ79DL5Ow_YZp7-158" value="Multiple Voltage ADCs" style="rounded=0;whiteSpace=wrap;html=1;" parent="1" vertex="1">
          <mxGeometry x="197.5" y="-680" width="140" height="30" as="geometry" />
        </mxCell>
        <mxCell id="znWlgwHZ79DL5Ow_YZp7-173" value="Battery Voltage Data" style="edgeStyle=orthogonalEdgeStyle;rounded=0;orthogonalLoop=1;jettySize=auto;html=1;entryX=0.5;entryY=0;entryDx=0;entryDy=0;" parent="1" source="znWlgwHZ79DL5Ow_YZp7-159" target="znWlgwHZ79DL5Ow_YZp7-164" edge="1">
          <mxGeometry x="-0.5875" relative="1" as="geometry">
            <Array as="points">
              <mxPoint x="370" y="-630" />
              <mxPoint x="358" y="-630" />
            </Array>
            <mxPoint as="offset" />
          </mxGeometry>
        </mxCell>
        <mxCell id="znWlgwHZ79DL5Ow_YZp7-159" value="Voltage ADC" style="rounded=0;whiteSpace=wrap;html=1;" parent="1" vertex="1">
          <mxGeometry x="345" y="-680" width="80" height="30" as="geometry" />
        </mxCell>
        <mxCell id="znWlgwHZ79DL5Ow_YZp7-174" value="Shunt Voltage Data" style="edgeStyle=orthogonalEdgeStyle;rounded=0;orthogonalLoop=1;jettySize=auto;html=1;entryX=0.75;entryY=0;entryDx=0;entryDy=0;" parent="1" source="znWlgwHZ79DL5Ow_YZp7-160" target="znWlgwHZ79DL5Ow_YZp7-164" edge="1">
          <mxGeometry x="-0.0245" relative="1" as="geometry">
            <Array as="points">
              <mxPoint x="490" y="-630" />
              <mxPoint x="382" y="-630" />
            </Array>
            <mxPoint as="offset" />
          </mxGeometry>
        </mxCell>
        <mxCell id="znWlgwHZ79DL5Ow_YZp7-160" value="Shunt ADC" style="rounded=0;whiteSpace=wrap;html=1;" parent="1" vertex="1">
          <mxGeometry x="430" y="-680" width="80" height="30" as="geometry" />
        </mxCell>
        <mxCell id="znWlgwHZ79DL5Ow_YZp7-163" value="Output Power Connector" style="rounded=1;whiteSpace=wrap;html=1;" parent="1" vertex="1">
          <mxGeometry x="550" y="-760" width="80" height="30" as="geometry" />
        </mxCell>
        <mxCell id="znWlgwHZ79DL5Ow_YZp7-176" value="Performance Data" style="edgeStyle=orthogonalEdgeStyle;rounded=0;orthogonalLoop=1;jettySize=auto;html=1;" parent="1" source="znWlgwHZ79DL5Ow_YZp7-164" target="znWlgwHZ79DL5Ow_YZp7-167" edge="1">
          <mxGeometry relative="1" as="geometry" />
        </mxCell>
        <mxCell id="znWlgwHZ79DL5Ow_YZp7-164" value="Microcontroller" style="rounded=0;whiteSpace=wrap;html=1;" parent="1" vertex="1">
          <mxGeometry x="307.5" y="-614" width="100" height="30" as="geometry" />
        </mxCell>
        <mxCell id="znWlgwHZ79DL5Ow_YZp7-175" value="Logging Data" style="edgeStyle=orthogonalEdgeStyle;rounded=0;orthogonalLoop=1;jettySize=auto;html=1;entryX=1;entryY=0.5;entryDx=0;entryDy=0;startArrow=classic;startFill=1;" parent="1" source="znWlgwHZ79DL5Ow_YZp7-165" target="znWlgwHZ79DL5Ow_YZp7-164" edge="1">
          <mxGeometry relative="1" as="geometry" />
        </mxCell>
        <mxCell id="znWlgwHZ79DL5Ow_YZp7-165" value="SD Card Read/ Writer" style="rounded=0;whiteSpace=wrap;html=1;" parent="1" vertex="1">
          <mxGeometry x="510" y="-614" width="120" height="30" as="geometry" />
        </mxCell>
        <mxCell id="znWlgwHZ79DL5Ow_YZp7-167" value="External Data Output" style="rounded=0;whiteSpace=wrap;html=1;" parent="1" vertex="1">
          <mxGeometry x="110" y="-614" width="85" height="30" as="geometry" />
        </mxCell>
        <mxCell id="znWlgwHZ79DL5Ow_YZp7-171" value="Main Power Flow" style="edgeStyle=orthogonalEdgeStyle;rounded=0;orthogonalLoop=1;jettySize=auto;html=1;dashed=1;dashPattern=12 12;" parent="1" edge="1">
          <mxGeometry relative="1" as="geometry">
            <mxPoint x="590" y="-780" as="targetPoint" />
            <mxPoint x="130" y="-780" as="sourcePoint" />
          </mxGeometry>
        </mxCell>
        <mxCell id="znWlgwHZ79DL5Ow_YZp7-232" value="&lt;font style=&quot;font-size: 18px;&quot;&gt;Software Layout&lt;br&gt;&lt;/font&gt;" style="text;html=1;strokeColor=none;fillColor=none;align=center;verticalAlign=middle;whiteSpace=wrap;rounded=0;" parent="1" vertex="1">
          <mxGeometry x="147.5" y="190" width="500" height="30" as="geometry" />
        </mxCell>
        <mxCell id="znWlgwHZ79DL5Ow_YZp7-235" style="edgeStyle=orthogonalEdgeStyle;rounded=0;orthogonalLoop=1;jettySize=auto;html=1;entryX=0.538;entryY=0;entryDx=0;entryDy=0;entryPerimeter=0;" parent="1" source="kjtUhcTxmiHCBkJJOneF-9" target="kjtUhcTxmiHCBkJJOneF-13" edge="1">
          <mxGeometry relative="1" as="geometry" />
        </mxCell>
        <mxCell id="znWlgwHZ79DL5Ow_YZp7-236" style="edgeStyle=orthogonalEdgeStyle;rounded=0;orthogonalLoop=1;jettySize=auto;html=1;entryX=0.464;entryY=0.01;entryDx=0;entryDy=0;entryPerimeter=0;" parent="1" source="kjtUhcTxmiHCBkJJOneF-4" target="kjtUhcTxmiHCBkJJOneF-9" edge="1">
          <mxGeometry relative="1" as="geometry" />
        </mxCell>
        <mxCell id="znWlgwHZ79DL5Ow_YZp7-239" value="" style="rounded=0;whiteSpace=wrap;html=1;" parent="1" vertex="1">
          <mxGeometry x="230" y="710" width="320" height="230" as="geometry" />
        </mxCell>
        <mxCell id="znWlgwHZ79DL5Ow_YZp7-251" value="&lt;font style=&quot;font-size: 18px;&quot;&gt;Online Battery Monitoring&lt;/font&gt;" style="text;html=1;strokeColor=none;fillColor=none;align=center;verticalAlign=middle;whiteSpace=wrap;rounded=0;" parent="1" vertex="1">
          <mxGeometry x="230" y="680" width="320" height="30" as="geometry" />
        </mxCell>
        <mxCell id="znWlgwHZ79DL5Ow_YZp7-252" value="" style="edgeStyle=orthogonalEdgeStyle;rounded=0;orthogonalLoop=1;jettySize=auto;html=1;fontSize=18;" parent="1" source="znWlgwHZ79DL5Ow_YZp7-254" target="znWlgwHZ79DL5Ow_YZp7-256" edge="1">
          <mxGeometry relative="1" as="geometry" />
        </mxCell>
        <mxCell id="znWlgwHZ79DL5Ow_YZp7-253" style="edgeStyle=elbowEdgeStyle;rounded=0;jumpStyle=sharp;orthogonalLoop=1;jettySize=auto;html=1;entryX=0;entryY=0.25;entryDx=0;entryDy=0;fontSize=18;jumpSize=8;" parent="1" source="znWlgwHZ79DL5Ow_YZp7-254" target="znWlgwHZ79DL5Ow_YZp7-270" edge="1">
          <mxGeometry relative="1" as="geometry">
            <Array as="points">
              <mxPoint x="380" y="740" />
              <mxPoint x="380" y="760" />
              <mxPoint x="360" y="740" />
            </Array>
          </mxGeometry>
        </mxCell>
        <mxCell id="znWlgwHZ79DL5Ow_YZp7-254" value="Simulation Parameters" style="rounded=1;whiteSpace=wrap;html=1;" parent="1" vertex="1">
          <mxGeometry x="250" y="730" width="100" height="40" as="geometry" />
        </mxCell>
        <mxCell id="znWlgwHZ79DL5Ow_YZp7-255" style="edgeStyle=elbowEdgeStyle;rounded=0;jumpStyle=sharp;jumpSize=8;orthogonalLoop=1;jettySize=auto;html=1;fontSize=18;startArrow=classic;startFill=1;" parent="1" source="znWlgwHZ79DL5Ow_YZp7-256" target="znWlgwHZ79DL5Ow_YZp7-270" edge="1">
          <mxGeometry relative="1" as="geometry" />
        </mxCell>
        <mxCell id="znWlgwHZ79DL5Ow_YZp7-256" value="Initial SoC Estimation" style="rounded=1;whiteSpace=wrap;html=1;" parent="1" vertex="1">
          <mxGeometry x="420" y="730" width="100" height="40" as="geometry" />
        </mxCell>
        <mxCell id="znWlgwHZ79DL5Ow_YZp7-257" style="edgeStyle=orthogonalEdgeStyle;rounded=0;orthogonalLoop=1;jettySize=auto;html=1;entryX=0;entryY=0.5;entryDx=0;entryDy=0;fontSize=18;" parent="1" source="znWlgwHZ79DL5Ow_YZp7-261" target="znWlgwHZ79DL5Ow_YZp7-256" edge="1">
          <mxGeometry relative="1" as="geometry">
            <Array as="points">
              <mxPoint x="370" y="800" />
              <mxPoint x="370" y="750" />
            </Array>
          </mxGeometry>
        </mxCell>
        <mxCell id="znWlgwHZ79DL5Ow_YZp7-258" style="edgeStyle=elbowEdgeStyle;rounded=0;jumpStyle=sharp;jumpSize=8;orthogonalLoop=1;jettySize=auto;html=1;entryX=0;entryY=0.5;entryDx=0;entryDy=0;fontSize=18;" parent="1" source="znWlgwHZ79DL5Ow_YZp7-261" target="znWlgwHZ79DL5Ow_YZp7-270" edge="1">
          <mxGeometry relative="1" as="geometry" />
        </mxCell>
        <mxCell id="znWlgwHZ79DL5Ow_YZp7-259" style="edgeStyle=elbowEdgeStyle;rounded=0;jumpStyle=sharp;jumpSize=8;orthogonalLoop=1;jettySize=auto;html=1;entryX=0.5;entryY=0;entryDx=0;entryDy=0;fontSize=18;" parent="1" source="znWlgwHZ79DL5Ow_YZp7-261" target="znWlgwHZ79DL5Ow_YZp7-263" edge="1">
          <mxGeometry relative="1" as="geometry" />
        </mxCell>
        <mxCell id="znWlgwHZ79DL5Ow_YZp7-260" style="edgeStyle=elbowEdgeStyle;rounded=0;jumpStyle=sharp;jumpSize=8;orthogonalLoop=1;jettySize=auto;html=1;exitX=0.75;exitY=1;exitDx=0;exitDy=0;entryX=0.25;entryY=0;entryDx=0;entryDy=0;fontSize=18;elbow=vertical;" parent="1" source="znWlgwHZ79DL5Ow_YZp7-261" target="znWlgwHZ79DL5Ow_YZp7-265" edge="1">
          <mxGeometry relative="1" as="geometry">
            <Array as="points">
              <mxPoint x="410" y="840" />
              <mxPoint x="400" y="840" />
              <mxPoint x="350" y="840" />
              <mxPoint x="410" y="850" />
            </Array>
          </mxGeometry>
        </mxCell>
        <mxCell id="znWlgwHZ79DL5Ow_YZp7-261" value="Voltage and Current Input" style="rounded=1;whiteSpace=wrap;html=1;" parent="1" vertex="1">
          <mxGeometry x="250" y="790" width="100" height="40" as="geometry" />
        </mxCell>
        <mxCell id="znWlgwHZ79DL5Ow_YZp7-262" style="edgeStyle=elbowEdgeStyle;rounded=0;jumpStyle=sharp;jumpSize=8;orthogonalLoop=1;jettySize=auto;html=1;entryX=0;entryY=0.75;entryDx=0;entryDy=0;fontSize=18;" parent="1" source="znWlgwHZ79DL5Ow_YZp7-263" target="znWlgwHZ79DL5Ow_YZp7-270" edge="1">
          <mxGeometry relative="1" as="geometry">
            <Array as="points">
              <mxPoint x="370" y="840" />
            </Array>
          </mxGeometry>
        </mxCell>
        <mxCell id="znWlgwHZ79DL5Ow_YZp7-263" value="Resistance Estimation" style="rounded=1;whiteSpace=wrap;html=1;" parent="1" vertex="1">
          <mxGeometry x="250" y="850" width="100" height="40" as="geometry" />
        </mxCell>
        <mxCell id="znWlgwHZ79DL5Ow_YZp7-264" style="edgeStyle=elbowEdgeStyle;rounded=0;jumpStyle=sharp;jumpSize=8;orthogonalLoop=1;jettySize=auto;html=1;exitX=0.25;exitY=1;exitDx=0;exitDy=0;entryX=0;entryY=0.5;entryDx=0;entryDy=0;fontSize=18;" parent="1" source="znWlgwHZ79DL5Ow_YZp7-265" target="znWlgwHZ79DL5Ow_YZp7-272" edge="1">
          <mxGeometry relative="1" as="geometry">
            <Array as="points">
              <mxPoint x="430" y="900" />
            </Array>
          </mxGeometry>
        </mxCell>
        <mxCell id="znWlgwHZ79DL5Ow_YZp7-265" value="Comparison Processing" style="rounded=1;whiteSpace=wrap;html=1;" parent="1" vertex="1">
          <mxGeometry x="410" y="850" width="100" height="40" as="geometry" />
        </mxCell>
        <mxCell id="znWlgwHZ79DL5Ow_YZp7-266" value="" style="endArrow=none;html=1;rounded=0;fontSize=18;entryX=1;entryY=0.288;entryDx=0;entryDy=0;entryPerimeter=0;" parent="1" target="znWlgwHZ79DL5Ow_YZp7-239" edge="1">
          <mxGeometry width="50" height="50" relative="1" as="geometry">
            <mxPoint x="230" y="777" as="sourcePoint" />
            <mxPoint x="340" y="850" as="targetPoint" />
          </mxGeometry>
        </mxCell>
        <mxCell id="znWlgwHZ79DL5Ow_YZp7-267" value="Startup" style="text;html=1;strokeColor=none;fillColor=none;align=center;verticalAlign=middle;whiteSpace=wrap;rounded=0;" parent="1" vertex="1">
          <mxGeometry x="230" y="710" width="320" height="20" as="geometry" />
        </mxCell>
        <mxCell id="znWlgwHZ79DL5Ow_YZp7-268" value="Live Loop" style="text;html=1;strokeColor=none;fillColor=none;align=center;verticalAlign=middle;whiteSpace=wrap;rounded=0;" parent="1" vertex="1">
          <mxGeometry x="230" y="920" width="320" height="20" as="geometry" />
        </mxCell>
        <mxCell id="znWlgwHZ79DL5Ow_YZp7-269" style="edgeStyle=elbowEdgeStyle;rounded=0;jumpStyle=sharp;jumpSize=8;orthogonalLoop=1;jettySize=auto;html=1;fontSize=18;" parent="1" source="znWlgwHZ79DL5Ow_YZp7-270" target="znWlgwHZ79DL5Ow_YZp7-265" edge="1">
          <mxGeometry relative="1" as="geometry" />
        </mxCell>
        <mxCell id="znWlgwHZ79DL5Ow_YZp7-270" value="Battery Simulation" style="rounded=1;whiteSpace=wrap;html=1;" parent="1" vertex="1">
          <mxGeometry x="410" y="791" width="100" height="40" as="geometry" />
        </mxCell>
        <mxCell id="znWlgwHZ79DL5Ow_YZp7-271" style="edgeStyle=elbowEdgeStyle;rounded=0;jumpStyle=sharp;jumpSize=8;orthogonalLoop=1;jettySize=auto;html=1;exitX=0.75;exitY=0;exitDx=0;exitDy=0;entryX=1;entryY=0.5;entryDx=0;entryDy=0;fontSize=18;" parent="1" source="znWlgwHZ79DL5Ow_YZp7-272" target="znWlgwHZ79DL5Ow_YZp7-270" edge="1">
          <mxGeometry relative="1" as="geometry">
            <Array as="points">
              <mxPoint x="530" y="830" />
              <mxPoint x="520" y="840" />
              <mxPoint x="530" y="840" />
            </Array>
          </mxGeometry>
        </mxCell>
        <mxCell id="znWlgwHZ79DL5Ow_YZp7-272" value="Estimated Performance" style="rounded=1;whiteSpace=wrap;html=1;" parent="1" vertex="1">
          <mxGeometry x="460" y="900" width="80" height="30" as="geometry" />
        </mxCell>
        <mxCell id="znWlgwHZ79DL5Ow_YZp7-273" value="&lt;font style=&quot;font-size: 18px;&quot;&gt;Software Layout (In Depth)&lt;br&gt;&lt;/font&gt;" style="text;html=1;strokeColor=none;fillColor=none;align=center;verticalAlign=middle;whiteSpace=wrap;rounded=0;" parent="1" vertex="1">
          <mxGeometry x="147.5" y="610" width="500" height="30" as="geometry" />
        </mxCell>
        <mxCell id="znWlgwHZ79DL5Ow_YZp7-290" value="" style="edgeStyle=orthogonalEdgeStyle;rounded=0;orthogonalLoop=1;jettySize=auto;html=1;" parent="1" source="znWlgwHZ79DL5Ow_YZp7-283" target="znWlgwHZ79DL5Ow_YZp7-284" edge="1">
          <mxGeometry relative="1" as="geometry" />
        </mxCell>
        <mxCell id="znWlgwHZ79DL5Ow_YZp7-283" value="Create Classes and Variables" style="rounded=1;whiteSpace=wrap;html=1;" parent="1" vertex="1">
          <mxGeometry x="20" y="545" width="100" height="40" as="geometry" />
        </mxCell>
        <mxCell id="znWlgwHZ79DL5Ow_YZp7-291" value="" style="edgeStyle=orthogonalEdgeStyle;rounded=0;orthogonalLoop=1;jettySize=auto;html=1;" parent="1" source="znWlgwHZ79DL5Ow_YZp7-284" target="znWlgwHZ79DL5Ow_YZp7-285" edge="1">
          <mxGeometry relative="1" as="geometry" />
        </mxCell>
        <mxCell id="znWlgwHZ79DL5Ow_YZp7-284" value="Initialise Communications" style="rounded=1;whiteSpace=wrap;html=1;" parent="1" vertex="1">
          <mxGeometry x="142.5" y="545" width="100" height="40" as="geometry" />
        </mxCell>
        <mxCell id="znWlgwHZ79DL5Ow_YZp7-292" value="" style="edgeStyle=orthogonalEdgeStyle;rounded=0;orthogonalLoop=1;jettySize=auto;html=1;" parent="1" source="znWlgwHZ79DL5Ow_YZp7-285" target="znWlgwHZ79DL5Ow_YZp7-286" edge="1">
          <mxGeometry relative="1" as="geometry" />
        </mxCell>
        <mxCell id="znWlgwHZ79DL5Ow_YZp7-285" value="Set ADC Settings" style="rounded=1;whiteSpace=wrap;html=1;" parent="1" vertex="1">
          <mxGeometry x="262.5" y="545" width="100" height="40" as="geometry" />
        </mxCell>
        <mxCell id="znWlgwHZ79DL5Ow_YZp7-293" value="" style="edgeStyle=orthogonalEdgeStyle;rounded=0;orthogonalLoop=1;jettySize=auto;html=1;" parent="1" source="znWlgwHZ79DL5Ow_YZp7-286" target="znWlgwHZ79DL5Ow_YZp7-287" edge="1">
          <mxGeometry relative="1" as="geometry" />
        </mxCell>
        <mxCell id="znWlgwHZ79DL5Ow_YZp7-286" value="Measure and Wait for Zero Current" style="rounded=1;whiteSpace=wrap;html=1;" parent="1" vertex="1">
          <mxGeometry x="382.5" y="545" width="100" height="40" as="geometry" />
        </mxCell>
        <mxCell id="znWlgwHZ79DL5Ow_YZp7-294" value="" style="edgeStyle=orthogonalEdgeStyle;rounded=0;orthogonalLoop=1;jettySize=auto;html=1;" parent="1" source="znWlgwHZ79DL5Ow_YZp7-287" target="znWlgwHZ79DL5Ow_YZp7-288" edge="1">
          <mxGeometry relative="1" as="geometry" />
        </mxCell>
        <mxCell id="znWlgwHZ79DL5Ow_YZp7-287" value="Instantiate Battery Model and Monitor" style="rounded=1;whiteSpace=wrap;html=1;" parent="1" vertex="1">
          <mxGeometry x="502.5" y="545" width="100" height="40" as="geometry" />
        </mxCell>
        <mxCell id="znWlgwHZ79DL5Ow_YZp7-288" value="Calculate Initial Used Capacity/ Energy" style="rounded=1;whiteSpace=wrap;html=1;" parent="1" vertex="1">
          <mxGeometry x="620" y="540" width="100" height="50" as="geometry" />
        </mxCell>
        <mxCell id="i4CbpEBUpJjn2vA3_yBz-1" value="&lt;div&gt;&lt;font style=&quot;font-size: 18px;&quot;&gt;Timing Diagram&lt;/font&gt;&lt;/div&gt;" style="text;html=1;strokeColor=none;fillColor=none;align=center;verticalAlign=middle;whiteSpace=wrap;rounded=0;" vertex="1" parent="1">
          <mxGeometry x="279.5" y="-1140" width="500" height="30" as="geometry" />
        </mxCell>
        <mxCell id="i4CbpEBUpJjn2vA3_yBz-2" value="&lt;font style=&quot;font-size: 18px;&quot;&gt;Hardware Layout&lt;br&gt;&lt;/font&gt;" style="text;html=1;strokeColor=none;fillColor=none;align=center;verticalAlign=middle;whiteSpace=wrap;rounded=0;" vertex="1" parent="1">
          <mxGeometry x="97.5" y="-820" width="500" height="30" as="geometry" />
        </mxCell>
        <mxCell id="i4CbpEBUpJjn2vA3_yBz-4" value="&lt;b&gt;ADC Processing&lt;/b&gt;" style="text;html=1;strokeColor=none;fillColor=none;align=center;verticalAlign=middle;whiteSpace=wrap;rounded=0;" vertex="1" parent="1">
          <mxGeometry x="232.5" y="-1090" width="500" height="30" as="geometry" />
        </mxCell>
        <mxCell id="i4CbpEBUpJjn2vA3_yBz-5" value="&lt;b&gt;Onboard Processing&lt;/b&gt;" style="text;html=1;strokeColor=none;fillColor=none;align=center;verticalAlign=middle;whiteSpace=wrap;rounded=0;" vertex="1" parent="1">
          <mxGeometry x="232.5" y="-970" width="500" height="30" as="geometry" />
        </mxCell>
        <mxCell id="i4CbpEBUpJjn2vA3_yBz-6" value="" style="endArrow=none;html=1;rounded=0;fontStyle=0;strokeWidth=4;" edge="1" parent="1">
          <mxGeometry width="50" height="50" relative="1" as="geometry">
            <mxPoint x="880" y="-1000" as="sourcePoint" />
            <mxPoint x="80" y="-1000" as="targetPoint" />
          </mxGeometry>
        </mxCell>
        <mxCell id="i4CbpEBUpJjn2vA3_yBz-7" value="Reading" style="rounded=0;whiteSpace=wrap;html=1;" vertex="1" parent="1">
          <mxGeometry x="80" y="-1060" width="49.5" height="30" as="geometry" />
        </mxCell>
        <mxCell id="i4CbpEBUpJjn2vA3_yBz-8" value="Reading" style="rounded=0;whiteSpace=wrap;html=1;" vertex="1" parent="1">
          <mxGeometry x="129.5" y="-1060" width="50" height="30" as="geometry" />
        </mxCell>
        <mxCell id="i4CbpEBUpJjn2vA3_yBz-9" value="Reading" style="rounded=0;whiteSpace=wrap;html=1;" vertex="1" parent="1">
          <mxGeometry x="179.5" y="-1060" width="50" height="30" as="geometry" />
        </mxCell>
        <mxCell id="i4CbpEBUpJjn2vA3_yBz-10" value="Reading" style="rounded=0;whiteSpace=wrap;html=1;" vertex="1" parent="1">
          <mxGeometry x="229.5" y="-1060" width="50" height="30" as="geometry" />
        </mxCell>
        <mxCell id="i4CbpEBUpJjn2vA3_yBz-11" value="Reading" style="rounded=0;whiteSpace=wrap;html=1;" vertex="1" parent="1">
          <mxGeometry x="279.5" y="-1060" width="50" height="30" as="geometry" />
        </mxCell>
        <mxCell id="i4CbpEBUpJjn2vA3_yBz-12" value="Reading" style="rounded=0;whiteSpace=wrap;html=1;" vertex="1" parent="1">
          <mxGeometry x="329.5" y="-1060" width="50" height="30" as="geometry" />
        </mxCell>
        <mxCell id="i4CbpEBUpJjn2vA3_yBz-13" value="Reading" style="rounded=0;whiteSpace=wrap;html=1;" vertex="1" parent="1">
          <mxGeometry x="379.5" y="-1060" width="50" height="30" as="geometry" />
        </mxCell>
        <mxCell id="i4CbpEBUpJjn2vA3_yBz-14" value="Reading" style="rounded=0;whiteSpace=wrap;html=1;" vertex="1" parent="1">
          <mxGeometry x="429.5" y="-1060" width="50" height="30" as="geometry" />
        </mxCell>
        <mxCell id="i4CbpEBUpJjn2vA3_yBz-15" value="Reading" style="rounded=0;whiteSpace=wrap;html=1;" vertex="1" parent="1">
          <mxGeometry x="479.5" y="-1060" width="50" height="30" as="geometry" />
        </mxCell>
        <mxCell id="i4CbpEBUpJjn2vA3_yBz-16" value="Reading" style="rounded=0;whiteSpace=wrap;html=1;" vertex="1" parent="1">
          <mxGeometry x="529.5" y="-1060" width="50" height="30" as="geometry" />
        </mxCell>
        <mxCell id="i4CbpEBUpJjn2vA3_yBz-17" value="Reading" style="rounded=0;whiteSpace=wrap;html=1;" vertex="1" parent="1">
          <mxGeometry x="579.5" y="-1060" width="50" height="30" as="geometry" />
        </mxCell>
        <mxCell id="i4CbpEBUpJjn2vA3_yBz-18" value="Reading" style="rounded=0;whiteSpace=wrap;html=1;" vertex="1" parent="1">
          <mxGeometry x="629.5" y="-1060" width="50" height="30" as="geometry" />
        </mxCell>
        <mxCell id="i4CbpEBUpJjn2vA3_yBz-19" value="Reading" style="rounded=0;whiteSpace=wrap;html=1;" vertex="1" parent="1">
          <mxGeometry x="679.5" y="-1060" width="50" height="30" as="geometry" />
        </mxCell>
        <mxCell id="i4CbpEBUpJjn2vA3_yBz-20" value="Reading" style="rounded=0;whiteSpace=wrap;html=1;" vertex="1" parent="1">
          <mxGeometry x="729.5" y="-1060" width="50" height="30" as="geometry" />
        </mxCell>
        <mxCell id="i4CbpEBUpJjn2vA3_yBz-21" value="Reading" style="rounded=0;whiteSpace=wrap;html=1;" vertex="1" parent="1">
          <mxGeometry x="779.5" y="-1060" width="50" height="30" as="geometry" />
        </mxCell>
        <mxCell id="i4CbpEBUpJjn2vA3_yBz-22" value="Reading" style="rounded=0;whiteSpace=wrap;html=1;" vertex="1" parent="1">
          <mxGeometry x="829.5" y="-1060" width="50" height="30" as="geometry" />
        </mxCell>
        <mxCell id="i4CbpEBUpJjn2vA3_yBz-24" value="" style="endArrow=none;html=1;rounded=0;" edge="1" parent="1" target="i4CbpEBUpJjn2vA3_yBz-35">
          <mxGeometry width="50" height="50" relative="1" as="geometry">
            <mxPoint x="80" y="-1000" as="sourcePoint" />
            <mxPoint x="80" y="-1030" as="targetPoint" />
          </mxGeometry>
        </mxCell>
        <mxCell id="i4CbpEBUpJjn2vA3_yBz-25" value="" style="endArrow=none;html=1;rounded=0;" edge="1" parent="1">
          <mxGeometry width="50" height="50" relative="1" as="geometry">
            <mxPoint x="879.5" y="-1000" as="sourcePoint" />
            <mxPoint x="880" y="-1070" as="targetPoint" />
          </mxGeometry>
        </mxCell>
        <mxCell id="i4CbpEBUpJjn2vA3_yBz-27" value="" style="endArrow=none;dashed=1;html=1;rounded=0;" edge="1" parent="1">
          <mxGeometry width="50" height="50" relative="1" as="geometry">
            <mxPoint x="80" y="-1013" as="sourcePoint" />
            <mxPoint x="880" y="-1013" as="targetPoint" />
          </mxGeometry>
        </mxCell>
        <mxCell id="i4CbpEBUpJjn2vA3_yBz-26" value="Averaging" style="text;strokeColor=none;align=center;fillColor=#FFFFFF;html=1;verticalAlign=middle;whiteSpace=wrap;rounded=0;" vertex="1" parent="1">
          <mxGeometry x="450" y="-1020" width="60" height="10" as="geometry" />
        </mxCell>
        <mxCell id="i4CbpEBUpJjn2vA3_yBz-30" value="Reading Ready" style="text;html=1;align=center;verticalAlign=middle;resizable=0;points=[];autosize=1;strokeColor=none;fillColor=none;" vertex="1" parent="1">
          <mxGeometry x="829.5" y="-1095" width="100" height="30" as="geometry" />
        </mxCell>
        <mxCell id="i4CbpEBUpJjn2vA3_yBz-32" value="" style="endArrow=none;html=1;rounded=0;entryX=0;entryY=1;entryDx=0;entryDy=0;" edge="1" parent="1">
          <mxGeometry width="50" height="50" relative="1" as="geometry">
            <mxPoint x="80" y="-970" as="sourcePoint" />
            <mxPoint x="80" y="-1000" as="targetPoint" />
          </mxGeometry>
        </mxCell>
        <mxCell id="i4CbpEBUpJjn2vA3_yBz-33" value="" style="endArrow=none;html=1;rounded=0;entryX=0;entryY=1;entryDx=0;entryDy=0;" edge="1" parent="1" source="i4CbpEBUpJjn2vA3_yBz-36">
          <mxGeometry width="50" height="50" relative="1" as="geometry">
            <mxPoint x="879.5" y="-970" as="sourcePoint" />
            <mxPoint x="879.5" y="-1000" as="targetPoint" />
          </mxGeometry>
        </mxCell>
        <mxCell id="i4CbpEBUpJjn2vA3_yBz-34" value="Processing reading, running simulations, communication" style="rounded=0;whiteSpace=wrap;html=1;" vertex="1" parent="1">
          <mxGeometry x="80" y="-1000" width="700" height="30" as="geometry" />
        </mxCell>
        <mxCell id="i4CbpEBUpJjn2vA3_yBz-35" value="Reading Ready" style="text;html=1;align=center;verticalAlign=middle;resizable=0;points=[];autosize=1;strokeColor=none;fillColor=none;" vertex="1" parent="1">
          <mxGeometry x="29.5" y="-1100" width="100" height="30" as="geometry" />
        </mxCell>
        <mxCell id="i4CbpEBUpJjn2vA3_yBz-37" value="" style="endArrow=none;html=1;rounded=0;entryX=0;entryY=1;entryDx=0;entryDy=0;" edge="1" parent="1" target="i4CbpEBUpJjn2vA3_yBz-36">
          <mxGeometry width="50" height="50" relative="1" as="geometry">
            <mxPoint x="879.5" y="-970" as="sourcePoint" />
            <mxPoint x="879.5" y="-1000" as="targetPoint" />
          </mxGeometry>
        </mxCell>
        <mxCell id="i4CbpEBUpJjn2vA3_yBz-36" value="Waiting for Reading" style="rounded=0;whiteSpace=wrap;html=1;" vertex="1" parent="1">
          <mxGeometry x="779.5" y="-1000" width="100" height="30" as="geometry" />
        </mxCell>
        <mxCell id="i4CbpEBUpJjn2vA3_yBz-38" value="Time" style="edgeStyle=orthogonalEdgeStyle;rounded=0;orthogonalLoop=1;jettySize=auto;html=1;dashed=1;" edge="1" parent="1">
          <mxGeometry relative="1" as="geometry">
            <mxPoint x="712.5" y="-1090" as="targetPoint" />
            <mxPoint x="252.5" y="-1090" as="sourcePoint" />
          </mxGeometry>
        </mxCell>
      </root>
    </mxGraphModel>
  </diagram>
</mxfile>
